<svg width="420" height="530" viewBox="0 0 420 530" fill="none" xmlns="http://www.w3.org/2000/svg">
<path d="M207.692 1.94452C206.583 3.23653 203.167 9.41967 200.674 14.68C199.843 16.4334 198.919 18.0945 198.55 18.3714C198.18 18.6482 197.165 20.5862 196.241 22.7088C194.025 27.7845 190.054 32.2142 187.746 32.2142C185.622 32.2142 179.066 27.0462 179.066 25.3851C179.066 23.5394 175.464 21.1399 172.602 21.1399C170.478 21.1399 169.739 21.6014 169.278 23.4471C169 24.7391 168.077 25.7542 167.338 25.7542C166.138 25.7542 160.32 21.9705 158.289 19.8479C155.149 16.5257 154.318 16.3411 151.363 18.3714C147.67 21.0477 147.854 23.3548 152.287 31.1068C154.318 34.6137 155.98 37.936 155.98 38.582C155.98 39.1357 156.257 39.5971 156.719 39.5971C157.458 39.5971 160.597 46.334 160.597 47.9028C160.597 48.4565 161.059 48.8257 161.521 48.8257C162.075 48.8257 162.444 49.8408 162.444 51.1328C162.444 52.4248 162.814 53.44 163.183 53.44C163.645 53.44 164.66 56.024 165.584 59.1617C166.507 62.3917 167.892 66.5445 168.631 68.3902L170.109 71.8971H210.554C250.538 71.8971 251 71.8971 252.846 69.9591C253.862 68.8517 254.878 66.2677 255.247 64.1451C255.524 62.1148 256.263 59.3462 256.817 58.0542C257.371 56.7622 258.387 54.4551 259.033 52.9785C261.25 47.7182 267.252 35.4442 267.806 34.9828C268.175 34.706 268.637 33.5985 269.006 32.3988C269.376 31.2914 270.114 30.3685 270.576 30.3685C271.038 30.3685 271.407 29.7225 271.407 28.9842C271.407 28.246 271.869 27.6 272.33 27.6C272.885 27.6 273.254 25.7542 273.254 23.5394C273.254 20.4017 272.792 19.202 271.222 18.1868C269.468 16.9871 268.822 16.9871 266.605 18.0945C265.22 18.8328 264.02 19.8479 264.02 20.3094C264.02 20.7708 263.558 21.1399 263.004 21.1399C262.45 21.1399 261.434 21.6937 260.788 22.2474C257.464 25.2005 256.632 25.7542 255.063 25.7542C254.139 25.7542 252.939 24.8314 252.477 23.6317C250.907 20.0325 243.705 20.9554 243.705 24.7391C243.705 26.1234 237.425 31.9374 235.302 32.4911C233.362 33.0448 230.407 30.7377 229.484 27.9691C229.207 26.954 228.191 25.2928 227.268 24.2777C225.698 22.4319 217.849 7.38938 217.849 6.18967C217.849 5.72823 216.926 4.43623 215.818 3.14423C213.694 0.652519 209.354 0.00652313 207.692 1.94452ZM213.232 16.0642C213.232 17.3562 216.002 23.078 217.018 23.9085C217.387 24.1854 218.495 26.0311 219.604 28.1537C220.712 30.184 222.374 32.768 223.39 33.8754C224.405 34.9828 225.236 36.0902 225.236 36.3671C225.236 36.644 226.252 37.936 227.545 39.1357C230.592 42.2734 236.04 42.2734 240.934 39.1357C245.182 36.4594 245.551 36.3671 245.551 38.2128C245.551 38.9511 246.198 39.5971 246.937 39.5971C248.599 39.5971 254.878 36.7362 256.448 35.1674C258.295 33.5062 258.479 33.7831 257.464 36.8285C256.909 38.3051 256.078 39.5971 255.617 39.5971C255.155 39.5971 254.786 40.4277 254.786 41.4428C254.786 42.458 254.416 43.2885 253.862 43.2885C253.4 43.2885 252.939 43.9345 252.939 44.6728C252.939 45.8725 251.092 50.6714 249.153 54.5474C248.691 55.4702 248.322 57.0391 248.322 57.962C248.322 58.9771 247.86 60.9151 247.214 62.2071L246.198 64.5142H211.385C174.633 64.5142 174.449 64.5142 174.449 60.1768C174.449 59.0694 173.895 56.7622 173.156 55.1011C172.417 53.44 171.217 50.5791 170.386 48.6411C169.555 46.7954 168.908 44.7651 168.908 44.0268C168.908 43.3808 168.077 41.812 167.061 40.52C165.214 38.1205 164.568 34.9828 166.046 34.9828C166.507 34.9828 167.061 35.2597 167.246 35.6288C167.615 36.644 174.172 39.5971 175.926 39.5971C176.665 39.5971 177.496 38.9511 177.865 38.2128C178.235 37.0131 178.604 36.9208 179.897 37.936C183.036 40.4277 185.622 41.4428 188.946 41.4428C191.901 41.4428 193.009 40.7968 196.795 36.7362C199.196 34.2445 201.412 31.1991 201.782 30.0917C202.151 28.9842 202.705 27.8768 202.982 27.6C204.275 26.5848 206.768 22.0628 206.768 20.6785C206.768 19.9402 207.045 19.2942 207.507 19.2942C207.876 19.2942 208.707 18.0945 209.354 16.618C210.554 13.8494 213.232 13.5725 213.232 16.0642Z" fill="black"/>
<path d="M170.201 84.3557C169.277 85.094 167.8 85.7401 166.877 85.7401C166.046 85.7401 165.214 86.0169 165.03 86.386C164.937 86.8475 163.275 87.7703 161.521 88.6009C152.933 92.6615 147.577 94.9686 146.746 94.9686C146.192 94.9686 145.084 95.3378 144.161 95.7992C142.314 96.8143 131.048 100.598 123.199 102.813C120.152 103.643 116.643 104.751 115.35 105.12C114.057 105.581 111.195 106.227 108.979 106.597C104.177 107.335 93.1882 112.872 93.1882 114.625C93.1882 115.087 92.6341 116.01 92.0801 116.656C89.3098 119.701 88.5711 120.809 88.5711 121.731C88.5711 122.193 88.2017 122.654 87.74 122.654C87.2783 122.654 86.6319 123.854 86.2626 125.423C85.8932 126.899 85.2468 128.376 84.7851 128.653C84.3234 129.022 83.954 130.222 83.954 131.421C83.954 132.621 83.5847 133.729 83.0306 133.913C82.5689 134.005 81.8302 136.774 81.5532 139.912C81.1838 143.142 80.6298 145.726 80.3527 145.726C79.9834 145.726 78.9676 147.571 78.0442 149.879C77.0284 152.186 75.9203 154.031 75.4586 154.031C75.0893 154.031 74.7199 155.877 74.7199 158.092C74.7199 160.399 74.3505 162.522 73.7965 162.799C72.1343 163.814 70.1952 169.259 69.7335 174.334C68.9947 181.994 67.3326 190.392 66.3168 191.315C65.8551 191.869 65.4858 193.161 65.4858 194.36C65.4858 195.56 65.1164 196.483 64.6547 196.483C64.193 196.483 63.5466 198.421 63.1772 200.82C62.8079 203.312 62.2538 205.619 61.7921 206.173C61.4227 206.634 60.8687 208.295 60.5917 209.864C59.7606 213.925 57.5444 222.6 56.898 224.169C56.0669 226.291 55.3282 231.828 54.3125 244.01C53.2967 255.823 53.9431 259.237 56.9904 259.237C57.9138 259.237 59.0219 259.606 59.4836 259.975C60.0376 260.437 62.9002 261.544 65.9475 262.467C68.9947 263.482 71.8573 264.59 72.4114 264.959C72.8731 265.328 74.6276 265.697 76.1974 265.697C77.8595 265.697 79.4293 266.066 79.7063 266.528C79.9834 266.897 85.7085 267.635 92.4494 268.004C102.238 268.558 105.193 269.019 107.132 270.404C108.517 271.327 109.994 272.157 110.548 272.157C112.488 272.157 113.78 274.926 112.857 277.048C109.625 283.785 108.794 289.691 109.071 302.981C109.256 312.763 109.071 316.639 108.147 317.469C107.409 318.3 107.039 321.53 107.039 326.606C107.039 334.173 107.593 336.665 110.825 342.479C111.933 344.694 111.841 348.201 110.641 350.877C109.717 352.999 108.979 353.184 100.298 353.738C95.1273 354.107 90.5103 354.753 89.9562 355.307C89.4945 355.768 88.3864 356.137 87.463 356.137C86.5396 356.137 85.8009 356.506 85.8009 357.06C85.8009 357.521 85.2468 357.983 84.6004 357.983C83.8617 357.983 81.6455 359.644 79.5217 361.674C75.828 365.366 73.2424 369.888 71.1186 376.532C69.9182 380.408 69.7335 402.188 70.9339 405.233C73.3348 411.509 75.274 415.754 76.105 416.861C79.0599 420.737 84.6004 425.075 89.2175 427.105C94.2039 429.227 95.6814 429.412 108.979 429.412C119.505 429.504 124.123 429.135 126.062 428.212C127.539 427.474 130.125 426.274 131.879 425.444C133.634 424.613 136.958 421.937 139.359 419.537C143.607 415.292 143.976 415.2 147.762 415.754C154.411 416.677 158.474 418.338 161.798 421.383C163.552 422.952 167.431 425.444 170.386 426.828C180.543 431.442 201.689 430.704 212.493 425.259C217.203 422.86 228.376 421.845 230.592 423.598C235.302 427.566 244.259 429.966 254.047 429.966C264.943 429.966 277.686 427.013 279.902 423.967C280.272 423.506 280.641 418.799 280.641 413.539V404.126H282.95C285.258 404.126 285.258 404.218 285.258 411.693C285.258 420.922 286.828 426.643 289.875 428.858C291.907 430.243 294.677 430.427 312.961 430.427C327.92 430.427 334.753 430.058 337.246 429.227L340.663 427.935V419.907C340.663 415.477 340.109 410.678 339.555 409.294C338.354 406.71 338.262 406.71 331.891 407.263C309.544 409.294 308.344 409.201 308.344 404.587C308.344 401.819 309.821 401.357 319.332 401.357C324.319 401.357 327.828 400.896 328.474 400.25C329.859 398.865 329.951 387.699 328.659 384.284C327.828 382.069 327.366 381.885 325.15 382.439C320.256 383.731 309.267 384.007 307.79 382.9C306.035 381.331 306.127 376.809 307.974 376.071C308.805 375.794 315.269 375.517 322.472 375.517C329.674 375.517 336.138 375.148 336.785 374.687C338.354 373.671 339.37 360.29 338.077 356.968C337.246 354.937 336.231 354.384 329.305 353.092C324.965 352.261 317.301 351.523 312.222 351.523H302.988L304.004 348.016C305.481 342.663 305.85 330.297 304.65 327.99C303.911 326.698 303.726 323.56 304.096 319.131C304.373 315.347 305.112 303.903 305.666 293.567L306.774 274.926H312.222C315.177 274.926 317.578 274.557 317.578 274.003C317.578 273.449 318.224 273.08 318.963 273.08C319.702 273.08 321.364 271.973 322.656 270.681C324.319 269.019 326.442 268.097 329.213 267.727C331.429 267.543 333.553 266.897 333.83 266.528C334.107 266.066 335.492 265.697 336.969 265.697C338.447 265.697 340.571 265.328 341.771 264.867C342.972 264.405 346.573 263.298 349.897 262.375C353.221 261.452 356.361 260.437 356.823 260.16C357.377 259.791 358.762 259.237 360.055 258.96C361.348 258.591 363.379 257.484 364.487 256.376C366.426 254.623 366.611 253.885 366.057 249.27C365.411 244.01 364.21 238.842 362.825 236.166C362.456 235.335 361.809 232.843 361.44 230.629C361.07 228.321 360.516 226.014 360.147 225.553C359.778 224.999 358.947 222.784 358.3 220.477C356.269 213.74 354.33 207.188 353.591 205.25C351.19 198.975 349.897 194.822 349.897 193.437C349.897 192.607 349.528 191.869 349.066 191.869C348.604 191.869 348.143 187.9 347.866 183.009C347.681 178.21 347.127 173.965 346.665 173.596C344.634 172.119 343.156 168.059 342.695 162.614C342.51 159.384 341.863 156.523 341.494 156.246C341.032 155.969 340.663 154.124 340.663 152.186C340.663 150.248 340.294 148.402 339.832 148.125C339.37 147.756 338.724 145.449 338.354 142.957C337.985 140.465 337.339 138.158 336.877 137.789C336.415 137.512 336.046 136.128 336.046 134.559C336.046 133.083 335.677 131.883 335.123 131.883C334.661 131.883 334.199 131.237 334.199 130.406C334.199 126.438 325.796 116.656 320.348 114.256C318.87 113.518 317.578 112.687 317.578 112.318C317.578 111.857 317.116 111.58 316.562 111.58C316.008 111.58 314.161 110.934 312.407 110.196C310.652 109.457 307.882 108.165 306.127 107.427C304.373 106.689 302.341 106.043 301.603 106.043C300.772 106.043 299.848 105.581 299.571 105.12C299.294 104.566 298.001 104.197 296.709 104.197C295.508 104.197 294.492 103.736 294.492 103.274C294.492 102.721 293.846 102.351 293.107 102.351C291.537 102.351 284.058 99.952 279.995 98.1063C278.425 97.368 276.67 96.8143 276.116 96.8143C275.562 96.8143 274.362 96.4452 273.439 95.9838C272.607 95.5223 269.376 93.9535 266.328 92.5692C263.281 91.0926 259.403 88.97 257.833 87.7703C254.416 85.2786 251.554 85.2786 242.781 88.0472C238.072 89.4315 233.455 90.1697 218.311 91.7386C209.446 92.6615 191.255 89.9852 184.144 86.6629C175.464 82.6946 172.971 82.2332 170.201 84.3557ZM174.449 90.8158C174.449 91.554 174.818 92.2 175.28 92.2C175.741 92.2 176.295 92.9383 176.665 93.7689C177.588 96.722 179.435 99.0292 186.453 106.043C195.964 115.548 201.782 118.409 211.754 118.409C218.588 118.409 219.881 118.132 226.621 114.81C232.531 111.949 235.671 109.457 242.597 102.628C247.214 97.8295 251.092 93.5843 251.092 93.1229C251.092 91.4618 254.324 92.2 257.094 94.4149C259.68 96.5375 259.772 96.722 258.479 99.2137C257.74 100.69 256.909 102.075 256.632 102.351C256.355 102.628 255.34 104.013 254.416 105.581C251.646 109.827 250.907 110.657 245.828 115.733C240.196 121.362 234.101 124.5 222.004 128.191C216.926 129.668 197.534 128.191 197.534 126.346C197.534 125.884 196.241 125.238 194.579 124.961C191.716 124.315 184.421 120.163 183.867 118.686C183.683 118.317 183.129 118.04 182.575 118.04C181.374 118.04 175.649 112.318 172.417 107.889C169.647 104.013 165.214 96.1683 165.214 94.9686C165.214 93.8612 171.678 89.4315 173.248 89.4315C173.895 89.4315 174.449 90.0775 174.449 90.8158ZM184.329 93.492C194.117 96.9989 196.056 97.2758 215.171 97.1835C225.698 97.0912 235.671 96.6298 237.333 96.076C246.198 93.3997 247.398 93.9535 242.966 98.4755C236.687 104.935 231.146 106.227 212.309 105.766C191.901 105.305 188.115 104.197 182.39 97.5526C177.588 91.9232 177.958 91.0926 184.329 93.492ZM163.922 100.229C164.845 102.167 165.953 103.828 166.415 104.013C166.784 104.197 167.061 104.751 167.061 105.212C167.061 107.058 182.39 122.654 184.237 122.654C184.883 122.654 185.53 122.931 185.714 123.3C186.084 124.315 191.901 127.269 193.471 127.269C194.21 127.269 194.764 127.638 194.764 128.007C194.764 129.299 205.014 131.237 212.309 131.329C225.606 131.421 238.441 126.53 247.398 117.855C252.939 112.595 257.556 106.781 257.556 105.212C257.556 104.659 257.925 104.197 258.479 104.197C258.941 104.197 259.587 103.182 259.957 101.89C260.788 98.3832 263.927 98.014 270.022 100.413C271.038 100.875 273.161 101.705 274.639 102.351C276.209 102.997 279.902 104.289 282.95 105.212C287.751 106.781 297.17 110.196 303.265 112.503C304.281 112.872 307.512 114.349 310.467 115.641C313.422 116.933 316.008 118.04 316.193 118.04C317.578 118.04 326.812 126.715 326.812 128.099C326.812 128.653 327.181 129.114 327.735 129.114C328.197 129.114 328.936 130.775 329.213 132.806C329.582 134.836 330.136 136.497 330.598 136.497C331.06 136.497 331.429 137.512 331.429 138.804C331.429 140.096 331.152 141.111 330.783 141.111C330.321 141.111 329.213 142.957 328.197 145.264C327.181 147.571 326.073 149.417 325.704 149.417C325.242 149.417 324.965 149.971 324.965 150.709C324.965 151.355 324.411 152.463 323.765 153.016C322.749 153.755 322.195 153.478 321.179 151.447C320.533 150.063 319.147 148.217 318.224 147.202C316.747 145.726 316.193 145.633 314.346 146.649C311.576 148.125 312.314 150.525 315.362 149.786C317.116 149.325 317.762 149.694 318.501 151.724C319.886 155.416 319.886 155.508 314.161 161.045L308.805 166.305L308.528 163.352C308.344 161.691 308.621 159.845 309.082 159.292C310.56 157.446 311.483 150.063 310.19 150.525C307.235 151.447 304.004 169.72 303.265 190.484C301.603 234.689 300.125 261.913 299.294 265.236C297.263 272.895 295.877 277.233 295.323 277.694C295.046 277.971 294.492 279.171 294.215 280.463C292.461 288.03 291.537 291.168 290.706 291.906C290.245 292.46 289.875 293.752 289.875 294.859C289.875 296.059 289.506 297.167 289.044 297.443C288.583 297.813 287.936 299.658 287.567 301.689C287.197 303.719 286.551 305.565 286.089 305.934C285.628 306.211 285.258 307.133 285.258 308.056C285.258 308.979 284.612 311.009 283.873 312.394C283.134 313.87 282.488 315.993 282.488 317.1C282.488 318.3 282.119 319.223 281.565 319.223C281.103 319.223 280.641 320.053 280.641 321.069C280.641 322.084 280.272 323.653 279.718 324.575C278.61 326.606 276.578 331.497 274.547 337.034C273.716 339.433 272.607 341.648 272.238 341.925C271.776 342.202 271.407 343.402 271.407 344.694C271.407 345.893 271.038 346.909 270.484 346.909C270.022 346.909 269.376 347.924 269.006 349.216C268.175 352.538 266.79 353.184 261.711 352.538C254.693 351.707 239.365 353.645 234.193 356.137C229.299 358.444 220.619 367.304 220.619 370.072C220.619 372.472 218.588 372.287 215.633 369.519C213.694 367.765 213.232 366.473 213.232 363.151C213.232 357.245 211.662 354.384 208.246 353.922C206.676 353.738 202.52 353.092 198.919 352.538L192.455 351.615L184.606 343.494C180.266 339.064 175.28 333.527 173.525 331.405C171.771 329.19 169.554 326.421 168.539 325.406C167.615 324.299 165.768 321.899 164.383 320.146C163.091 318.392 161.428 316.362 160.874 315.716C160.228 315.07 159.674 314.147 159.674 313.778C159.674 313.409 158.935 312.301 158.012 311.286C155.98 309.071 147.947 296.521 143.976 289.23C142.314 286.185 140.467 282.862 139.913 281.847C138.343 279.079 136.681 277.51 135.758 278.063C134.926 278.617 141.944 293.567 143.33 294.121C143.699 294.306 143.976 294.859 143.976 295.321C143.976 296.336 153.025 310.825 154.688 312.578C155.426 313.224 155.98 314.147 155.98 314.516C155.98 314.885 156.719 315.993 157.642 317.008C158.474 317.931 160.69 320.607 162.444 322.914C164.199 325.221 165.953 327.159 166.323 327.344C166.784 327.529 167.061 327.99 167.061 328.451C167.061 329.282 172.509 335.465 181.744 345.247C184.975 348.662 187.469 351.707 187.192 351.984C186.915 352.261 183.867 352.723 180.358 353.092C176.665 353.369 172.048 354.476 169.462 355.768L164.937 357.891L162.26 354.937C160.782 353.276 158.474 350.323 157.088 348.293C155.703 346.263 154.411 344.417 154.133 344.14C153.856 343.863 153.21 342.848 152.656 341.833C149.886 336.665 148.039 333.435 147.67 333.066C146.654 332.051 134.742 307.595 134.742 306.487C134.742 305.934 134.372 305.38 133.818 305.38C133.357 305.38 132.895 304.919 132.895 304.365C132.895 303.442 130.863 298.366 129.201 295.136C128.74 294.306 128.093 292.091 127.816 290.245C127.447 288.399 126.8 286.646 126.339 286.369C125.877 286.092 125.508 284.893 125.508 283.693C125.508 282.493 125.138 281.293 124.677 281.017C124.215 280.647 123.568 278.802 123.199 276.771C122.83 274.741 122.183 272.895 121.722 272.526C121.26 272.249 120.891 271.05 120.891 269.758C120.891 268.558 120.521 266.805 120.06 265.882C119.505 265.051 118.49 261.821 117.659 258.776C116.735 255.73 115.719 252.223 115.258 250.931C113.873 247.148 112.488 237.365 111.656 226.476C111.287 220.846 110.456 213.371 109.902 209.864C108.609 201.374 108.609 173.135 109.902 161.414C111.195 149.509 110.456 144.341 107.132 141.204C103.346 137.697 100.391 135.574 99.0057 135.574C97.3435 135.574 95.9584 138.62 95.9584 142.403C95.9584 144.711 95.5891 145.726 94.5733 145.726C93.8346 145.726 93.1882 145.08 93.1882 144.341C93.1882 143.603 92.8188 142.957 92.4494 142.957C90.972 142.957 88.4788 135.759 89.3098 134.005C89.7715 133.083 90.972 130.683 91.8954 128.653C92.8188 126.623 93.8346 124.777 94.2039 124.5C94.481 124.223 95.4967 122.747 96.4201 121.085C98.0823 118.225 103.623 114.441 107.963 113.241C110.456 112.595 120.798 110.011 124.584 109.088C125.877 108.811 127.354 108.258 127.816 107.796C128.37 107.427 130.586 106.781 132.71 106.412C134.834 106.043 136.866 105.397 137.143 105.028C137.42 104.566 138.343 104.197 139.174 104.197C141.021 104.197 152.748 99.952 155.98 98.1986C159.951 95.8915 161.982 96.4452 163.922 100.229ZM204.367 109.827C210.277 110.842 217.849 110.565 226.437 109.181C230.961 108.35 230.777 109.827 225.883 111.857C223.759 112.78 221.266 113.979 220.435 114.441C219.511 114.902 215.633 115.271 211.847 115.271C206.122 115.271 203.905 114.81 199.75 112.78C196.98 111.488 194.21 109.734 193.563 108.996C192.64 107.889 192.917 107.704 195.225 108.165C196.795 108.535 200.858 109.273 204.367 109.827ZM104.639 143.234C106.67 145.91 107.039 147.295 107.039 152.832C107.039 157.538 106.67 159.661 105.654 160.491C104.731 161.322 104.269 161.322 104.269 160.584C104.269 160.03 103.715 159.569 103.069 159.569C101.407 159.569 95.035 153.385 95.035 151.724C95.035 150.986 95.5891 150.34 96.3278 150.34C97.7129 150.34 99.6521 145.818 99.6521 142.403C99.6521 139.266 101.961 139.635 104.639 143.234ZM88.5711 148.863C88.5711 150.063 93.8346 155.693 100.668 161.876L104.823 165.659L105.008 186.055C105.1 197.221 105.562 207.557 106.116 208.941C106.578 210.233 107.039 215.309 107.039 220.108C107.039 224.815 107.409 230.536 107.963 232.659C108.425 234.874 109.625 240.134 110.641 244.471C111.656 248.809 113.134 254.623 113.965 257.391C116.643 266.251 116.735 267.543 114.704 267.543C113.78 267.543 111.564 266.251 109.81 264.682C106.855 261.913 106.485 261.821 101.314 262.375C96.0508 263.021 82.5689 261.637 78.8753 260.16C77.8595 259.699 74.7199 258.683 71.9497 257.853C61.5151 254.715 56.7133 251.485 59.8529 249.639C60.5917 249.178 67.3326 250.839 72.4114 252.685C75.1816 253.792 76.8438 252.962 75.274 251.301C73.8888 250.009 71.765 248.993 64.5624 246.317L60.407 244.748L60.684 238.842C60.8687 235.612 61.3304 232.474 61.7921 232.013C62.1615 231.459 62.8079 228.598 63.1772 225.553C63.5466 222.507 64.1006 219.554 64.5624 219.093C64.9317 218.539 65.4858 217.155 65.7628 215.863C67.2403 209.218 68.3483 205.065 69.0871 203.404C70.6569 199.805 74.6276 185.87 75.1816 182.179C75.4586 180.148 76.0127 176.365 76.1974 173.688C76.4744 171.012 77.3055 168.428 78.0442 167.782C78.7829 167.228 79.337 166.121 79.337 165.475C79.337 164.737 79.7987 164.183 80.2604 164.183C80.8144 164.183 81.1838 162.245 81.1838 159.938C81.1838 156.892 81.8302 154.954 83.4923 152.739C84.7851 151.078 85.8009 148.771 85.8009 147.664C85.8009 145.818 85.9855 145.726 87.186 147.018C87.9247 147.756 88.5711 148.587 88.5711 148.863ZM333.645 147.202C333.922 148.033 334.199 149.602 334.199 150.801C334.199 152.001 334.661 153.293 335.123 153.57C335.677 153.847 336.046 156.523 336.046 159.384C336.046 164.829 337.8 172.119 339.37 173.227C341.309 174.703 342.418 178.949 342.879 187.254C343.156 192.053 343.803 196.114 344.357 196.298C344.818 196.483 345.28 197.59 345.28 198.79C345.28 199.99 345.649 201.189 346.111 201.559C346.665 201.835 347.312 203.958 347.681 206.173C347.958 208.48 348.604 210.326 349.066 210.326C349.528 210.326 349.897 210.972 349.897 211.802C349.897 213.463 352.483 221.769 353.683 224.353C354.145 225.276 354.514 226.937 354.514 228.137C354.514 229.337 354.884 230.629 355.345 231.09C355.715 231.644 356.546 233.674 357.007 235.704C357.561 237.735 358.3 240.134 358.67 240.965C359.131 242.257 358.854 242.626 357.469 242.626C356.361 242.626 355.345 242.995 355.068 243.456C354.699 243.918 352.76 244.564 350.544 244.933C348.42 245.302 346.296 245.948 345.742 246.317C345.28 246.686 343.341 247.24 341.586 247.517C335.861 248.44 329.12 250.378 328.474 251.301C327.458 252.869 328.659 253.792 330.505 252.777C331.429 252.316 333.46 251.854 335.03 251.854C336.508 251.854 337.985 251.485 338.262 251.024C338.539 250.562 340.755 249.916 343.064 249.547C345.465 249.27 348.235 248.624 349.343 248.163C356.546 245.487 358.208 245.302 359.593 246.686C362.548 249.547 360.516 253.331 355.53 254.254C353.96 254.623 352.667 255.177 352.667 255.546C352.667 255.915 351.282 256.469 349.712 256.745C346.204 257.299 339.186 259.145 336.508 260.252C335.492 260.621 332.445 261.175 329.674 261.452L324.78 261.913L325.334 245.117C325.611 235.889 326.165 211.249 326.442 190.484C326.997 151.171 326.997 151.447 330.875 146.925C332.26 145.357 332.999 145.449 333.645 147.202ZM323.765 200.82C322.934 252.962 322.841 253.885 318.778 257.853C315.823 260.714 310.098 262.929 305.573 262.929C303.726 262.929 303.542 262.559 304.096 258.037C304.373 255.453 304.927 235.981 305.389 214.94C306.312 174.611 306.404 173.873 310.837 168.797C311.945 167.505 313.607 165.567 314.623 164.367C315.639 163.26 316.747 162.337 317.116 162.337C318.593 162.337 316.654 175.903 312.868 191.869C312.407 194.176 311.483 198.236 310.929 200.82C310.467 203.497 309.636 205.711 309.267 205.711C308.898 205.711 308.344 207.096 308.067 208.665C307.697 210.326 307.235 213.094 306.866 214.663C306.497 216.509 306.681 217.709 307.235 217.709C308.713 217.709 309.913 215.586 311.021 210.787C311.668 208.203 312.591 204.512 313.053 202.481C313.607 200.451 314.53 196.483 315.177 193.714C315.823 190.946 316.562 187.993 316.931 187.254C317.208 186.516 317.67 184.209 317.855 182.179C319.702 165.475 321.179 159.661 323.488 159.569C323.949 159.569 324.042 176.365 323.765 200.82ZM321.179 262.652C316.747 268.466 312.499 270.404 307.235 269.019C302.434 267.727 302.711 265.697 307.697 265.605C309.913 265.605 313.145 264.682 315.269 263.39C317.301 262.283 319.702 261.267 320.717 261.175C322.195 261.083 322.287 261.267 321.179 262.652ZM120.891 279.079C120.891 281.109 122.368 285.354 124.677 289.876C125.138 290.799 125.508 292.368 125.508 293.291C125.508 294.306 125.969 295.413 126.431 295.69C126.985 295.967 127.354 296.89 127.354 297.72C127.354 298.459 128.001 300.489 128.74 302.242C129.478 303.996 130.771 306.949 131.602 308.795C132.341 310.733 134.095 314.332 135.388 316.916C136.773 319.407 138.897 323.56 140.19 326.144C141.483 328.636 142.868 330.851 143.33 331.035C143.699 331.22 143.976 331.774 143.976 332.235C143.976 333.25 153.025 347.739 154.688 349.493C155.426 350.139 155.98 351.061 155.98 351.431C155.98 351.8 157.458 353.645 159.212 355.491C160.967 357.337 162.444 359.09 162.444 359.367C162.444 359.736 161.059 361.305 159.397 362.874C156.442 365.827 154.503 369.611 152.194 377.086C151.64 379.301 150.809 381.054 150.532 381.054C149.239 380.962 146.746 378.47 146.746 377.271C146.746 375.148 143.699 367.211 142.868 367.211C142.498 367.211 142.129 366.658 142.129 366.012C142.037 362.136 131.879 355.676 123.661 354.384C120.337 353.83 117.382 353.369 117.105 353.369C116.735 353.369 116.551 350.785 116.643 347.555C116.643 343.586 116.181 340.725 114.981 338.141C112.672 333.343 112.672 322.268 114.888 316.731C115.996 313.87 116.274 311.655 115.812 308.887C114.796 302.519 114.981 290.522 116.181 286C116.828 283.693 117.566 280.74 117.843 279.263C118.49 276.125 120.891 275.941 120.891 279.079ZM299.202 303.996C298.186 314.701 296.801 323.099 295.508 326.144C295.046 327.159 294.031 329.743 293.2 331.958C292.368 334.081 290.799 337.403 289.598 339.341C288.398 341.187 286.828 344.14 286.089 345.709C285.351 347.37 284.519 348.754 284.242 348.754C283.873 348.754 283.319 349.677 283.042 350.785C282.765 351.984 281.657 353.922 280.641 355.214C278.979 357.245 278.702 357.337 277.871 355.953C277.317 355.122 275.655 354.199 274.177 353.83C272.053 353.369 271.407 352.723 271.407 350.969C271.407 349.769 271.869 348.754 272.33 348.754C272.884 348.754 273.254 348.293 273.254 347.739C273.254 347.185 273.9 345.34 274.639 343.586C275.378 341.833 276.578 339.064 277.317 337.403C278.056 335.834 279.164 332.697 279.902 330.482C280.549 328.359 281.38 326.606 281.749 326.606C282.211 326.606 282.488 325.867 282.488 324.945C282.488 324.114 283.134 322.176 283.873 320.699C284.612 319.315 285.258 317.469 285.258 316.823C285.258 316.085 285.628 314.793 286.089 313.87C286.551 313.04 287.659 310.179 288.49 307.687C289.321 305.103 290.429 302.242 290.799 301.227C293.2 295.782 294.492 292.091 294.492 290.522C294.492 289.507 294.954 288.769 295.416 288.769C295.97 288.769 296.339 287.938 296.339 286.831C296.339 285.815 297.078 283.693 298.001 282.124L299.571 279.448L299.848 286.646C299.94 290.614 299.663 298.366 299.202 303.996ZM299.94 339.433C297.909 349.585 295.785 353.369 292.091 353.369C288.583 353.369 285.258 358.629 285.258 364.258C285.258 367.857 284.797 369.611 283.227 371.364C282.119 372.656 280.826 373.671 280.364 373.671C279.164 373.671 280.087 359.829 281.288 358.998C281.749 358.721 282.488 357.798 282.765 357.06C283.134 356.322 284.704 353.553 286.182 351.061C287.659 348.477 290.706 342.94 292.83 338.603C298.094 327.805 298.371 327.529 299.848 331.22C300.772 333.619 300.864 335.281 299.94 339.433ZM198.457 373.302C203.259 374.687 210.646 378.747 211.2 380.224C212.032 382.346 213.232 380.685 213.232 377.363C213.232 373.579 213.417 373.395 216.464 374.225C218.218 374.687 218.311 375.333 218.034 388.622C217.664 402.834 217.941 404.679 222.097 414C222.835 415.569 223.389 417.046 223.389 417.323C223.389 417.599 221.543 417.969 219.234 418.153L215.079 418.43V412.893C215.079 407.633 213.971 400.803 212.955 399.788C212.493 399.327 202.982 402.372 202.151 403.203C201.32 404.033 193.009 405.971 190.239 405.971C184.237 405.971 178.973 402.741 177.126 397.85C176.018 395.082 176.018 385.484 177.126 382.715C178.419 379.301 182.852 375.056 186.915 373.395C191.624 371.549 192.455 371.549 198.457 373.302ZM266.144 373.856C268.544 374.779 269.653 377.363 267.713 377.363C267.252 377.363 266.79 378.193 266.79 379.209C266.79 381.7 267.344 381.516 269.93 378.563C271.776 376.44 272.33 376.255 273.623 377.271C274.731 378.193 274.824 378.932 274.085 380.316C272.7 382.9 273.531 384.377 275.285 382.531C276.116 381.7 277.04 381.054 277.409 381.054C278.24 381.054 280.641 378.563 280.641 377.64C280.641 377.271 281.749 376.163 282.95 375.24L285.258 373.579V385.484V397.389L281.38 398.496C276.301 400.065 269.653 402.188 267.252 403.111C259.495 406.156 255.894 406.617 251 404.864C246.567 403.387 243.889 399.881 242.689 394.159C239.549 379.024 251.923 368.227 266.144 373.856ZM111.102 377.917C111.379 380.316 111.656 386.868 111.656 392.498C111.656 399.511 112.026 403.203 112.857 404.033C113.78 405.049 112.765 405.141 107.409 404.864C100.668 404.495 99.7444 404.033 96.6048 399.511C94.2963 396.281 94.3886 384.284 96.6971 380.777C100.206 375.609 102.884 373.856 107.593 373.764C110.364 373.671 110.548 373.856 111.102 377.917ZM121.445 381.516C123.476 385.761 123.846 387.514 123.384 391.483C122.83 396.927 121.26 400.988 119.413 401.726C118.397 402.095 118.12 400.896 118.028 396.466C118.028 393.328 117.659 387.514 117.382 383.546C116.551 374.779 117.751 374.133 121.445 381.516ZM151.363 392.682C151.363 397.481 151.733 402.188 152.194 403.018C152.564 403.849 153.21 405.971 153.579 407.725L154.133 410.863L150.255 410.217C148.131 409.847 146.192 409.478 146.1 409.294C145.915 409.201 146.284 406.987 146.839 404.495C147.485 402.003 148.131 396.374 148.316 391.852C148.593 385.669 149.055 383.823 150.07 383.823C151.086 383.823 151.363 385.576 151.363 392.682Z" fill="black"/>
<path d="M26.2407 352.907C13.867 354.845 6.94139 357.891 4.07881 362.874C1.77027 366.842 1.67793 377.086 4.07881 380.685C8.14183 387.053 16.4525 392.775 27.1641 396.743C35.1055 399.696 35.9366 400.342 34.1821 403.111C33.5357 404.126 31.7812 404.218 26.6101 403.849C15.6215 402.926 10.635 402.188 8.60353 401.173C7.58778 400.711 5.46393 400.434 3.98646 400.619L1.30856 400.896L1.03154 413.077L0.754517 425.259L4.26349 426.182C6.20266 426.643 9.89631 427.659 12.3895 428.305C18.6687 429.966 48.3103 429.966 49.9725 428.305C50.5265 427.751 51.7269 427.197 52.558 427.197C56.7134 427.197 63.8237 421.752 66.4092 416.677C68.1637 413.262 68.3484 401.265 66.5939 400.619C66.0399 400.434 65.4858 399.881 65.4858 399.327C65.4858 397.02 57.2674 390.929 48.218 386.499C38.2451 381.608 36.7676 380.224 38.7068 377.824C40.369 375.886 58.3755 375.886 62.9926 377.824C64.8394 378.563 66.5939 379.209 66.8709 379.209C67.7943 379.209 67.3326 359.459 66.2245 356.506C65.2088 353.738 64.7471 353.461 59.4836 352.538C52.0963 351.246 35.6595 351.431 26.2407 352.907Z" fill="black"/>
<path d="M349.897 352.815C348.143 353.461 346.296 354.845 345.742 355.953C345.28 357.06 344.541 357.983 344.172 357.983C342.879 357.983 343.341 367.211 344.726 369.795C345.465 371.18 346.85 373.118 347.958 374.041C349.805 375.702 349.897 376.717 349.99 396.651C350.082 408.832 350.544 419.445 351.19 422.121L352.206 426.736L360.516 427.013C370.859 427.382 375.291 426.182 376.122 422.952C376.492 421.66 376.492 416.953 376.122 412.339C375.476 404.587 375.568 404.126 377.323 404.126C379.631 404.126 383.048 408.002 386.926 414.831C391.081 422.398 392.559 424.705 394.221 425.997C397.084 428.397 412.412 426.92 417.768 423.783C419.338 422.86 419.43 422.398 418.507 420.829C417.86 419.722 417.306 418.338 417.306 417.692C417.306 415.754 410.565 406.617 405.394 401.542C400.962 397.204 399.577 394.897 401.424 394.897C402.716 394.897 412.689 385.299 412.689 384.007C412.689 383.454 413.059 382.9 413.52 382.9C414.906 382.9 416.014 374.317 415.183 369.426C413.059 356.414 400.316 351.431 368.827 351.615C358.854 351.615 351.929 352.077 349.897 352.815ZM385.91 373.395C388.958 375.425 389.604 376.44 389.604 379.393C389.604 384.653 377.23 388.991 372.983 385.207C370.674 383.177 370.489 377.363 372.613 374.133C373.906 372.195 374.829 371.826 378.892 371.826C381.847 371.826 384.525 372.379 385.91 373.395Z" fill="black"/>
<path d="M50.7112 440.579C34.0898 442.701 26.3331 446.485 22.7318 454.237C20.7003 458.759 20.7003 466.972 22.7318 471.31C24.394 474.724 32.6123 483.491 34.2745 483.491C34.7362 483.491 36.306 484.23 37.5988 485.153C38.9839 486.075 44.155 488.383 49.1414 490.321C58.2832 493.92 61.0535 496.227 58.5603 498.257C56.3441 500.103 36.86 498.442 25.9638 495.396C19.9616 493.735 19.4075 495.119 19.3152 509.516C19.3152 515.884 19.5922 521.882 19.8692 522.713C20.7003 524.651 26.1484 526.866 30.3038 526.866C32.1506 526.866 34.1821 527.327 34.8285 527.973C36.3983 529.542 75.0894 529.634 76.6592 528.065C77.3056 527.419 78.783 526.866 79.8911 526.866C82.015 526.866 87.8325 524.189 88.3865 522.897C88.5712 522.528 89.1253 522.251 89.6793 522.251C90.9721 522.251 94.7581 518.006 96.6049 514.407C98.8211 510.254 98.7288 499.549 96.4202 495.95C93.927 492.166 86.632 485.337 84.9699 485.337C84.5082 485.337 83.9541 485.06 83.7695 484.599C83.4001 483.676 77.5826 480.723 76.0128 480.723C75.2741 480.723 74.72 480.261 74.72 479.8C74.72 479.246 74.166 478.877 73.6119 478.877C71.5804 478.877 64.2854 474.817 63.2697 473.155C61.4228 470.11 63.9161 469.187 75.7358 468.91C84.1388 468.633 88.0172 468.91 91.3414 470.018C93.8347 470.848 96.3279 471.494 96.7896 471.494C98.2671 471.494 98.0824 451.837 96.6049 446.116L95.4045 441.501L89.4023 440.486C81.6456 439.102 61.7922 439.102 50.7112 440.579Z" fill="black"/>
<path d="M106.762 440.855C102.515 445.562 105.193 492.443 110.641 509.331C111.102 510.623 112.211 514.038 113.134 516.899C114.057 519.852 115.166 522.251 115.535 522.251C115.904 522.251 116.274 522.805 116.274 523.451C116.274 524.189 117.105 525.758 118.213 526.958C119.967 528.988 120.891 529.173 129.848 529.45C144.438 530.003 144.992 529.727 148.408 522.897C150.071 519.667 151.363 516.622 151.363 516.161C151.363 515.607 152.379 513.023 153.672 510.439C155.796 506.009 156.257 505.64 159.12 505.64C162.444 505.64 165.215 507.578 165.215 509.885C165.215 510.623 165.584 511.177 165.953 511.177C166.415 511.177 167.523 512.931 168.539 515.053C169.462 517.268 170.478 519.206 170.755 519.483C171.032 519.76 171.955 521.421 172.879 523.267C174.91 527.235 179.62 529.173 185.16 528.435C193.933 527.143 198.088 526.22 199.935 525.205C201.966 524.097 206.768 515.33 206.768 512.746C206.768 511.823 207.045 511.177 207.507 511.177C208.984 511.177 212.955 492.443 214.987 475.186C215.633 470.387 216.464 463.835 216.926 460.789C218.218 452.668 218.126 443.163 216.741 442.24C211.939 439.194 189.408 437.902 186.822 440.486C186.084 441.225 185.53 442.24 185.53 442.793C185.53 443.347 185.16 443.809 184.699 443.809C183.313 443.809 181.836 456.544 181.836 469.556C181.836 476.57 181.559 483.03 181.282 483.861C181.005 484.691 179.804 485.337 178.604 485.337C176.942 485.337 176.018 484.23 174.079 480.261C172.787 477.401 171.678 474.817 171.678 474.355C171.678 473.986 170.478 471.125 169.001 468.08C166.415 462.912 165.953 462.358 162.537 461.804C157.55 460.974 155.703 462.173 152.841 468.449C151.456 471.402 149.794 474.817 149.239 476.109C148.593 477.401 147.577 478.969 147.023 479.615C146.377 480.261 145.823 481.277 145.823 481.738C145.823 482.199 144.807 482.569 143.607 482.569C140.929 482.569 140.282 480.907 139.359 471.494C137.881 457.836 136.496 448.884 135.665 448.054C135.111 447.5 134.742 446.393 134.742 445.47C134.742 444.547 134.373 443.809 133.818 443.809C133.357 443.809 132.895 443.347 132.895 442.793C132.895 440.117 129.571 439.287 118.952 439.194C109.81 439.194 108.055 439.471 106.762 440.855Z" fill="black"/>
<path d="M257.094 441.963C247.86 443.993 248.045 443.901 242.966 449.992C238.811 454.883 230.038 475.832 226.991 487.644C226.622 489.121 225.606 492.905 224.775 495.95C223.944 498.995 222.928 503.148 222.466 505.179C222.005 507.209 220.989 511.731 220.25 515.238C218.588 522.528 218.865 522.99 225.236 524.928C231.146 526.773 247.306 527.327 247.768 525.758C247.952 525.112 248.876 521.975 249.799 518.837C250.723 515.699 252.292 512.1 253.401 510.808C255.34 508.501 255.894 508.409 265.497 508.409C271.961 508.501 276.117 508.87 277.04 509.608C277.779 510.254 279.626 513.577 281.011 517.176C284.704 526.589 285.166 526.866 293.754 526.866C301.695 526.866 313.238 524.651 314.715 522.897C315.362 522.067 315.362 520.498 314.715 518.099C314.161 516.068 313.422 512.746 312.961 510.716C312.222 507.209 310.375 499.641 308.528 492.72C306.866 486.26 303.542 475.647 302.711 474.078C302.249 473.155 301.88 471.956 301.88 471.402C301.88 468.633 292.83 450.545 289.968 447.685C285.905 443.624 280.087 441.778 270.022 441.501C264.943 441.317 259.126 441.501 257.094 441.963ZM269.837 467.987C272.423 470.664 276.024 481 276.024 485.522C276.024 489.582 275.193 489.951 266.236 489.951H259.403V486.814C259.403 482.384 262.819 471.31 265.22 467.987C265.682 467.434 266.698 466.88 267.436 466.88C268.175 466.88 269.283 467.434 269.837 467.987Z" fill="black"/>
<path d="M354.976 441.686C349.713 442.24 342.972 444.455 337.431 447.315C333.83 449.161 324.042 459.036 324.042 460.881C324.042 461.62 323.672 462.266 323.118 462.266C322.657 462.266 322.195 463.004 322.195 463.927C322.195 464.85 321.825 465.957 321.456 466.419C319.24 468.91 317.485 479.8 317.855 488.198C318.224 497.796 320.071 508.409 321.364 508.409C321.825 508.409 322.195 509.055 322.195 509.793C322.195 512.654 329.305 522.251 331.429 522.251C331.983 522.251 332.352 522.528 332.352 522.897C332.352 524.005 337.8 526.866 339.74 526.866C340.663 526.866 341.586 527.419 341.771 527.973C342.141 528.896 346.204 529.173 358.3 529.173C374.552 529.173 378.523 528.619 385.91 525.112C389.696 523.359 397.545 515.607 398.469 512.746C398.838 511.639 399.577 510.439 400.131 510.07C400.777 509.701 401.147 504.809 401.147 496.688C401.147 486.075 400.87 483.399 399.392 480.261C396.991 475.37 395.976 474.447 391.266 473.432C382.863 471.402 371.228 472.602 362.179 476.201C358.208 477.77 357.192 478.693 356.361 481.277C355.161 484.783 356.546 493.551 358.393 494.658C359.685 495.489 364.764 494.658 366.057 493.551C367.442 492.259 372.706 492.628 373.26 494.012C375.106 498.626 369.104 501.949 358.762 501.949C350.082 501.949 348.42 500.657 346.942 492.812C345.372 484.414 347.035 474.909 350.544 471.863C355.345 467.711 360.978 466.511 372.428 467.341C391.358 468.633 390.62 468.726 392.005 465.034C393.482 460.974 393.575 452.022 392.282 447.5C391.081 443.532 390.527 443.347 378.061 441.963C370.674 441.225 360.147 441.04 354.976 441.686Z" fill="black"/>
</svg>
