<svg width="220" height="337" viewBox="0 0 220 337" fill="none" xmlns="http://www.w3.org/2000/svg">
<path d="M108.797 20.3163C108.219 20.9903 106.438 24.2159 105.138 26.96C104.705 27.8747 104.223 28.7413 104.031 28.8857C103.838 29.0302 103.309 30.0412 102.827 31.1485C101.672 33.7963 99.6018 36.1072 98.3983 36.1072C97.291 36.1072 93.8731 33.4112 93.8731 32.5446C93.8731 31.5817 91.9956 30.33 90.5033 30.33C89.3961 30.33 89.011 30.5707 88.7703 31.5336C88.6258 32.2076 88.1444 32.7372 87.7593 32.7372C87.1335 32.7372 84.1007 30.7633 83.0416 29.656C81.4048 27.9229 80.9716 27.8266 79.4311 28.8857C77.5055 30.2819 77.6018 31.4855 79.9125 35.5295C80.9716 37.3589 81.8381 39.092 81.8381 39.429C81.8381 39.7179 81.9825 39.9586 82.2232 39.9586C82.6083 39.9586 84.2451 43.473 84.2451 44.2915C84.2451 44.5803 84.4858 44.7729 84.7265 44.7729C85.0153 44.7729 85.2079 45.3025 85.2079 45.9765C85.2079 46.6505 85.4005 47.18 85.593 47.18C85.8337 47.18 86.3633 48.528 86.8447 50.1649C87.3261 51.8499 88.0482 54.0163 88.4333 54.9792L89.2035 56.8086H110.289C131.134 56.8086 131.374 56.8086 132.337 55.7976C132.867 55.2199 133.396 53.8719 133.589 52.7646C133.733 51.7055 134.118 50.2612 134.407 49.5872C134.696 48.9132 135.225 47.7096 135.562 46.9393C136.718 44.1952 139.847 37.7922 140.136 37.5515C140.328 37.407 140.569 36.8293 140.762 36.2035C140.954 35.6257 141.339 35.1443 141.58 35.1443C141.821 35.1443 142.013 34.8073 142.013 34.4222C142.013 34.037 142.254 33.7 142.495 33.7C142.783 33.7 142.976 32.7372 142.976 31.5817C142.976 29.9449 142.735 29.319 141.917 28.7894C141.002 28.1636 140.665 28.1636 139.51 28.7413C138.788 29.1264 138.162 29.656 138.162 29.8967C138.162 30.1375 137.921 30.33 137.632 30.33C137.344 30.33 136.814 30.6189 136.477 30.9077C134.744 32.4483 134.311 32.7372 133.492 32.7372C133.011 32.7372 132.385 32.2557 132.144 31.6299C131.326 29.7523 127.571 30.2337 127.571 32.2076C127.571 32.9297 124.298 35.9627 123.19 36.2516C122.179 36.5405 120.639 35.3369 120.158 33.8926C120.013 33.363 119.484 32.4965 119.002 31.9669C118.184 31.004 114.092 23.1567 114.092 22.5309C114.092 22.2902 113.611 21.6162 113.033 20.9422C111.926 19.6423 109.663 19.3053 108.797 20.3163ZM111.685 27.6822C111.685 28.3562 113.129 31.341 113.659 31.7743C113.851 31.9187 114.429 32.8816 115.007 33.9889C115.584 35.048 116.451 36.396 116.98 36.9737C117.51 37.5515 117.943 38.1292 117.943 38.2736C117.943 38.418 118.473 39.092 119.147 39.7179C120.735 41.3547 123.576 41.3547 126.127 39.7179C128.341 38.3217 128.534 38.2736 128.534 39.2365C128.534 39.6216 128.871 39.9586 129.256 39.9586C130.123 39.9586 133.396 38.4662 134.214 37.6477C135.177 36.7812 135.274 36.9256 134.744 38.5143C134.455 39.2846 134.022 39.9586 133.781 39.9586C133.541 39.9586 133.348 40.3919 133.348 40.9215C133.348 41.451 133.155 41.8843 132.867 41.8843C132.626 41.8843 132.385 42.2213 132.385 42.6065C132.385 43.2323 131.422 45.7357 130.411 47.7577C130.171 48.2392 129.978 49.0576 129.978 49.539C129.978 50.0686 129.737 51.0796 129.4 51.7536L128.871 52.9572H110.722C91.5624 52.9572 91.4661 52.9572 91.4661 50.6945C91.4661 50.1167 91.1773 48.9132 90.7921 48.0466C90.407 47.18 89.7812 45.6876 89.3479 44.6766C88.9147 43.7137 88.5777 42.6546 88.5777 42.2695C88.5777 41.9325 88.1444 41.114 87.6149 40.44C86.6521 39.1883 86.3151 37.5515 87.0854 37.5515C87.3261 37.5515 87.6149 37.6959 87.7112 37.8885C87.9037 38.418 91.3217 39.9586 92.2363 39.9586C92.6215 39.9586 93.0547 39.6216 93.2473 39.2365C93.4398 38.6106 93.6324 38.5625 94.3064 39.092C95.9431 40.3919 97.291 40.9215 99.0241 40.9215C100.565 40.9215 101.142 40.5844 103.116 38.4662C104.368 37.1663 105.523 35.5776 105.716 34.9999C105.908 34.4222 106.197 33.8444 106.341 33.7C107.015 33.1705 108.315 30.8115 108.315 30.0893C108.315 29.7042 108.46 29.3672 108.7 29.3672C108.893 29.3672 109.326 28.7413 109.663 27.971C110.289 26.5267 111.685 26.3823 111.685 27.6822Z" fill="white"/>
<path d="M89.2516 63.3079C88.7702 63.693 88 64.03 87.5186 64.03C87.0853 64.03 86.6521 64.1744 86.5558 64.367C86.5077 64.6077 85.6411 65.0892 84.7265 65.5224C80.2495 67.6407 77.4573 68.8443 77.0241 68.8443C76.7352 68.8443 76.1576 69.0369 75.6762 69.2776C74.7134 69.8071 68.8403 71.781 64.7484 72.9364C63.1597 73.3697 61.3304 73.9474 60.6565 74.14C59.9825 74.3807 58.4902 74.7177 57.3348 74.9103C54.8315 75.2954 49.1028 78.184 49.1028 79.0987C49.1028 79.3394 48.814 79.8209 48.5252 80.1579C47.081 81.7466 46.6958 82.3243 46.6958 82.8057C46.6958 83.0464 46.5033 83.2872 46.2626 83.2872C46.0219 83.2872 45.6849 83.913 45.4923 84.7314C45.2998 85.5017 44.9628 86.272 44.7221 86.4164C44.4814 86.609 44.2888 87.2349 44.2888 87.8607C44.2888 88.4866 44.0963 89.0643 43.8074 89.1606C43.5667 89.2087 43.1816 90.653 43.0372 92.2899C42.8446 93.9749 42.5558 95.3229 42.4114 95.3229C42.2188 95.3229 41.6893 96.2857 41.2079 97.4893C40.6783 98.6929 40.1007 99.6557 39.86 99.6557C39.6674 99.6557 39.4748 100.619 39.4748 101.774C39.4748 102.978 39.2823 104.085 38.9934 104.229C38.1269 104.759 37.116 107.599 36.8753 110.247C36.4902 114.243 35.6236 118.624 35.0941 119.105C34.8534 119.394 34.6608 120.068 34.6608 120.694C34.6608 121.32 34.4683 121.801 34.2276 121.801C33.9869 121.801 33.6499 122.812 33.4573 124.064C33.2648 125.364 32.9759 126.568 32.7352 126.856C32.5427 127.097 32.2538 127.964 32.1094 128.782C31.6761 130.9 30.5208 135.426 30.1838 136.244C29.7505 137.352 29.3654 140.24 28.8359 146.595C28.3063 152.757 28.6433 154.539 30.2319 154.539C30.7133 154.539 31.291 154.731 31.5317 154.924C31.8206 155.164 33.3129 155.742 34.9015 156.224C36.4902 156.753 37.9825 157.331 38.2713 157.523C38.512 157.716 39.4267 157.909 40.2451 157.909C41.1116 157.909 41.93 158.101 42.0744 158.342C42.2188 158.534 45.2035 158.92 48.7177 159.112C53.8206 159.401 55.3611 159.642 56.372 160.364C57.0941 160.845 57.8643 161.279 58.1532 161.279C59.1641 161.279 59.8381 162.723 59.3567 163.83C57.6718 167.345 57.2385 170.426 57.3829 177.358C57.4792 182.461 57.3829 184.483 56.9015 184.917C56.5164 185.35 56.3239 187.035 56.3239 189.683C56.3239 193.631 56.6127 194.93 58.2976 197.963C58.8753 199.119 58.8271 200.948 58.2013 202.344C57.7199 203.452 57.3348 203.548 52.8096 203.837C50.1138 204.029 47.7068 204.366 47.4179 204.655C47.1772 204.896 46.5996 205.089 46.1182 205.089C45.6368 205.089 45.2516 205.281 45.2516 205.57C45.2516 205.811 44.9628 206.051 44.6258 206.051C44.2407 206.051 43.0853 206.918 41.9781 207.977C40.0525 209.903 38.7046 212.262 37.5974 215.728C36.9716 217.75 36.8753 229.112 37.5011 230.701C38.7527 233.974 39.7637 236.189 40.1969 236.767C41.7374 238.789 44.6258 241.051 47.0328 242.11C49.6324 243.218 50.4026 243.314 57.3348 243.314C62.8228 243.362 65.2298 243.17 66.2407 242.688C67.0109 242.303 68.3589 241.677 69.2735 241.244C70.1882 240.811 71.9212 239.414 73.1729 238.163C75.3873 235.948 75.5799 235.9 77.5536 236.189C81.0197 236.67 83.1379 237.537 84.8709 239.126C85.7856 239.944 87.8074 241.244 89.3479 241.966C94.6433 244.373 105.667 243.988 111.3 241.148C113.755 239.896 119.58 239.366 120.735 240.281C123.19 242.351 127.86 243.603 132.963 243.603C138.643 243.603 145.287 242.062 146.442 240.474C146.635 240.233 146.827 237.778 146.827 235.033V230.123H148.031C149.234 230.123 149.234 230.171 149.234 234.071C149.234 238.885 150.053 241.87 151.641 243.025C152.7 243.747 154.144 243.844 163.676 243.844C171.475 243.844 175.037 243.651 176.337 243.218L178.118 242.544V238.355C178.118 236.044 177.829 233.541 177.54 232.819C176.915 231.471 176.867 231.471 173.545 231.76C161.895 232.819 161.269 232.771 161.269 230.364C161.269 228.919 162.039 228.679 166.998 228.679C169.597 228.679 171.427 228.438 171.764 228.101C172.486 227.379 172.534 221.553 171.86 219.772C171.427 218.617 171.186 218.52 170.031 218.809C167.479 219.483 161.751 219.628 160.98 219.05C160.066 218.232 160.114 215.873 161.077 215.487C161.51 215.343 164.88 215.199 168.635 215.199C172.389 215.199 175.759 215.006 176.096 214.765C176.915 214.236 177.444 207.255 176.77 205.522C176.337 204.463 175.807 204.174 172.197 203.5C169.934 203.067 165.939 202.681 163.291 202.681H158.477L159.007 200.852C159.777 198.06 159.969 191.609 159.344 190.405C158.958 189.731 158.862 188.094 159.055 185.783C159.199 183.809 159.584 177.84 159.873 172.448L160.451 162.723H163.291C164.832 162.723 166.083 162.53 166.083 162.241C166.083 161.953 166.42 161.76 166.805 161.76C167.19 161.76 168.057 161.182 168.731 160.508C169.597 159.642 170.705 159.16 172.149 158.968C173.304 158.871 174.411 158.534 174.556 158.342C174.7 158.101 175.422 157.909 176.193 157.909C176.963 157.909 178.07 157.716 178.696 157.475C179.322 157.235 181.199 156.657 182.932 156.175C184.665 155.694 186.302 155.164 186.543 155.02C186.832 154.827 187.554 154.539 188.228 154.394C188.902 154.202 189.961 153.624 190.538 153.046C191.549 152.131 191.646 151.746 191.357 149.339C191.02 146.595 190.394 143.899 189.672 142.503C189.479 142.07 189.142 140.77 188.95 139.614C188.757 138.411 188.468 137.207 188.276 136.966C188.083 136.678 187.65 135.522 187.313 134.319C186.254 130.804 185.243 127.386 184.858 126.375C183.606 123.101 182.932 120.935 182.932 120.213C182.932 119.779 182.74 119.394 182.499 119.394C182.258 119.394 182.018 117.324 181.873 114.773C181.777 112.269 181.488 110.055 181.247 109.862C180.188 109.092 179.418 106.973 179.177 104.133C179.081 102.448 178.744 100.956 178.551 100.811C178.311 100.667 178.118 99.7039 178.118 98.6929C178.118 97.6819 177.926 96.719 177.685 96.5746C177.444 96.382 177.107 95.1784 176.915 93.8786C176.722 92.5787 176.385 91.3752 176.144 91.1826C175.904 91.0381 175.711 90.316 175.711 89.4976C175.711 88.7273 175.519 88.1014 175.23 88.1014C174.989 88.1014 174.748 87.7644 174.748 87.3311C174.748 85.261 170.368 80.1579 167.527 78.9061C166.757 78.521 166.083 78.0877 166.083 77.8951C166.083 77.6544 165.842 77.51 165.554 77.51C165.265 77.51 164.302 77.173 163.387 76.7879C162.473 76.4027 161.028 75.7287 160.114 75.3436C159.199 74.9584 158.14 74.6214 157.755 74.6214C157.322 74.6214 156.84 74.3807 156.696 74.14C156.551 73.8512 155.877 73.6586 155.204 73.6586C154.578 73.6586 154.048 73.4179 154.048 73.1772C154.048 72.8883 153.711 72.6957 153.326 72.6957C152.508 72.6957 148.608 71.444 146.49 70.4812C145.672 70.096 144.757 69.8071 144.468 69.8071C144.179 69.8071 143.554 69.6146 143.072 69.3739C142.639 69.1331 140.954 68.3147 139.365 67.5926C137.777 66.8223 135.755 65.715 134.937 65.0892C133.155 63.7893 131.663 63.7893 127.09 65.2336C124.635 65.9557 122.228 66.3409 114.333 67.1593C109.711 67.6407 100.228 66.2446 96.5208 64.5114C91.9956 62.4413 90.6958 62.2006 89.2516 63.3079ZM91.4661 66.6779C91.4661 67.063 91.6586 67.4 91.8993 67.4C92.14 67.4 92.4289 67.7852 92.6214 68.2184C93.1029 69.759 94.0657 70.9626 97.7243 74.6214C102.683 79.5802 105.716 81.0726 110.915 81.0726C114.477 81.0726 115.151 80.9281 118.665 79.195C121.746 77.7026 123.383 76.4027 126.993 72.8401C129.4 70.3367 131.422 68.1221 131.422 67.8814C131.422 67.0149 133.107 67.4 134.551 68.5554C135.899 69.6627 135.947 69.759 135.274 71.0589C134.888 71.8291 134.455 72.5513 134.311 72.6957C134.166 72.8401 133.637 73.5623 133.155 74.3807C131.711 76.5953 131.326 77.0286 128.678 79.6764C125.742 82.6131 122.565 84.25 116.258 86.1757C113.611 86.946 103.501 86.1757 103.501 85.2129C103.501 84.9722 102.827 84.6351 101.961 84.4907C100.468 84.1537 96.6652 81.9873 96.3764 81.217C96.2801 81.0244 95.9912 80.88 95.7024 80.88C95.0766 80.88 92.0919 77.8951 90.407 75.5843C88.9628 73.5623 86.6521 69.4702 86.6521 68.8443C86.6521 68.2666 90.0219 65.9557 90.8403 65.9557C91.1772 65.9557 91.4661 66.2927 91.4661 66.6779ZM96.6171 68.074C101.72 69.9034 102.731 70.0479 112.696 69.9997C118.184 69.9516 123.383 69.7109 124.249 69.422C128.871 68.0259 129.497 68.3147 127.186 70.6737C123.912 74.0437 121.024 74.7177 111.204 74.477C100.565 74.2363 98.5908 73.6586 95.6061 70.1923C93.1029 67.2556 93.2954 66.8223 96.6171 68.074ZM85.9781 71.5884C86.4595 72.5994 87.0372 73.466 87.2779 73.5623C87.4705 73.6586 87.6149 73.9474 87.6149 74.1882C87.6149 75.151 95.6061 83.2872 96.5689 83.2872C96.9059 83.2872 97.2429 83.4316 97.3392 83.6241C97.5317 84.1537 100.565 85.6943 101.383 85.6943C101.768 85.6943 102.057 85.8869 102.057 86.0794C102.057 86.7534 107.4 87.7644 111.204 87.8126C118.136 87.8607 124.827 85.3091 129.497 80.7837C132.385 78.0396 134.792 75.0066 134.792 74.1882C134.792 73.8993 134.985 73.6586 135.274 73.6586C135.514 73.6586 135.851 73.129 136.044 72.455C136.477 70.6256 138.114 70.433 141.291 71.6847C141.821 71.9254 142.928 72.3587 143.698 72.6957C144.516 73.0327 146.442 73.7067 148.031 74.1882C150.534 75.0066 155.444 76.7879 158.621 77.9914C159.151 78.184 160.836 78.9543 162.376 79.6283C163.917 80.3023 165.265 80.88 165.361 80.88C166.083 80.88 170.897 85.4054 170.897 86.1276C170.897 86.4164 171.09 86.6572 171.379 86.6572C171.619 86.6572 172.004 87.5237 172.149 88.5829C172.341 89.642 172.63 90.5086 172.871 90.5086C173.112 90.5086 173.304 91.0381 173.304 91.7121C173.304 92.3862 173.16 92.9157 172.967 92.9157C172.726 92.9157 172.149 93.8786 171.619 95.0822C171.09 96.2857 170.512 97.2486 170.319 97.2486C170.079 97.2486 169.934 97.5374 169.934 97.9226C169.934 98.2596 169.646 98.8373 169.309 99.1261C168.779 99.5113 168.49 99.3669 167.961 98.3077C167.624 97.5856 166.902 96.6227 166.42 96.0932C165.65 95.3229 165.361 95.2747 164.398 95.8043C162.954 96.5746 163.339 97.8263 164.928 97.4411C165.842 97.2004 166.179 97.393 166.565 98.4521C167.287 100.378 167.287 100.426 164.302 103.315L161.51 106.059L161.365 104.518C161.269 103.652 161.414 102.689 161.654 102.4C162.425 101.437 162.906 97.5856 162.232 97.8263C160.691 98.3077 159.007 107.84 158.621 118.672C157.755 141.733 156.985 155.935 156.551 157.668C155.492 161.664 154.77 163.926 154.481 164.167C154.337 164.312 154.048 164.937 153.904 165.611C152.989 169.559 152.508 171.196 152.074 171.581C151.834 171.87 151.641 172.544 151.641 173.122C151.641 173.748 151.449 174.325 151.208 174.47C150.967 174.662 150.63 175.625 150.438 176.684C150.245 177.743 149.908 178.706 149.667 178.899C149.427 179.043 149.234 179.525 149.234 180.006C149.234 180.488 148.897 181.547 148.512 182.269C148.127 183.039 147.79 184.146 147.79 184.724C147.79 185.35 147.597 185.831 147.309 185.831C147.068 185.831 146.827 186.265 146.827 186.794C146.827 187.324 146.635 188.142 146.346 188.624C145.768 189.683 144.709 192.234 143.65 195.123C143.217 196.375 142.639 197.53 142.446 197.675C142.206 197.819 142.013 198.445 142.013 199.119C142.013 199.745 141.821 200.274 141.532 200.274C141.291 200.274 140.954 200.804 140.761 201.478C140.328 203.211 139.606 203.548 136.958 203.211C133.3 202.778 125.309 203.789 122.613 205.089C120.061 206.292 115.536 210.914 115.536 212.358C115.536 213.61 114.477 213.514 112.937 212.069C111.926 211.155 111.685 210.481 111.685 208.747C111.685 205.666 110.867 204.174 109.085 203.933C108.267 203.837 106.101 203.5 104.223 203.211L100.853 202.73L96.7615 198.493C94.4989 196.182 91.8993 193.294 90.9847 192.186C90.07 191.031 88.9147 189.587 88.3851 189.057C87.9037 188.479 86.9409 187.228 86.2188 186.313C85.5449 185.398 84.6783 184.339 84.3895 184.002C84.0525 183.665 83.7637 183.184 83.7637 182.991C83.7637 182.798 83.3786 182.221 82.8972 181.691C81.8381 180.536 77.6499 173.988 75.5799 170.185C74.7134 168.596 73.7505 166.863 73.4617 166.334C72.6433 164.889 71.7768 164.071 71.2954 164.36C70.8621 164.649 74.5208 172.448 75.2429 172.737C75.4355 172.833 75.5799 173.122 75.5799 173.362C75.5799 173.892 80.2976 181.45 81.1641 182.365C81.5492 182.702 81.8381 183.184 81.8381 183.376C81.8381 183.569 82.2232 184.146 82.7046 184.676C83.1379 185.157 84.2932 186.554 85.2079 187.757C86.1225 188.961 87.0372 189.972 87.2298 190.068C87.4705 190.164 87.6149 190.405 87.6149 190.646C87.6149 191.079 90.4551 194.305 95.2691 199.408C96.9541 201.189 98.2538 202.778 98.1094 202.922C97.965 203.067 96.3764 203.307 94.5471 203.5C92.6214 203.644 90.2144 204.222 88.8665 204.896L86.5077 206.003L85.1116 204.463C84.3414 203.596 83.1379 202.056 82.4158 200.996C81.6937 199.937 81.0197 198.974 80.8753 198.83C80.7309 198.686 80.3939 198.156 80.105 197.626C78.6608 194.93 77.698 193.245 77.5055 193.053C76.9759 192.523 70.7659 179.765 70.7659 179.188C70.7659 178.899 70.5733 178.61 70.2845 178.61C70.0438 178.61 69.8031 178.369 69.8031 178.08C69.8031 177.599 68.744 174.951 67.8775 173.266C67.6368 172.833 67.2998 171.677 67.1554 170.715C66.9628 169.752 66.6258 168.837 66.3851 168.693C66.1444 168.548 65.9519 167.922 65.9519 167.296C65.9519 166.671 65.7593 166.045 65.5186 165.9C65.2779 165.708 64.9409 164.745 64.7484 163.686C64.5558 162.627 64.2188 161.664 63.9781 161.471C63.7374 161.327 63.5449 160.701 63.5449 160.027C63.5449 159.401 63.3523 158.486 63.1116 158.005C62.8228 157.572 62.2932 155.887 61.86 154.298C61.3786 152.709 60.849 150.88 60.6083 150.206C59.8862 148.232 59.1641 143.129 58.7309 137.448C58.5383 134.511 58.105 130.612 57.8162 128.782C57.1422 124.353 57.1422 109.621 57.8162 103.507C58.4902 97.2967 58.105 94.6007 56.372 92.9639C54.3983 91.1344 52.8578 90.0271 52.1357 90.0271C51.2691 90.0271 50.547 91.6159 50.547 93.5897C50.547 94.7933 50.3545 95.3229 49.8249 95.3229C49.4398 95.3229 49.1028 94.9859 49.1028 94.6007C49.1028 94.2156 48.9103 93.8786 48.7177 93.8786C47.9475 93.8786 46.6477 90.1234 47.081 89.2087C47.3217 88.7273 47.9475 87.4756 48.4289 86.4164C48.9103 85.3573 49.4398 84.3944 49.6324 84.25C49.7768 84.1056 50.3063 83.3353 50.7877 82.4687C51.6543 80.9763 54.5427 79.0024 56.8053 78.3766C58.105 78.0396 63.4967 76.6916 65.4705 76.2101C66.1444 76.0657 66.9147 75.7769 67.1554 75.5361C67.4442 75.3436 68.5996 75.0066 69.7068 74.814C70.814 74.6214 71.8731 74.2844 72.0175 74.0919C72.1619 73.8512 72.6433 73.6586 73.0766 73.6586C74.0394 73.6586 80.1532 71.444 81.8381 70.5293C83.9081 69.3257 84.9672 69.6146 85.9781 71.5884ZM107.063 76.5953C110.144 77.1249 114.092 76.9804 118.569 76.2583C120.928 75.825 120.832 76.5953 118.28 77.6544C117.173 78.1359 115.873 78.7617 115.44 79.0024C114.958 79.2431 112.937 79.4357 110.963 79.4357C107.978 79.4357 106.823 79.195 104.656 78.1359C103.212 77.4619 101.768 76.5471 101.431 76.162C100.95 75.5843 101.094 75.488 102.298 75.7287C103.116 75.9213 105.234 76.3064 107.063 76.5953ZM55.0722 94.023C56.1313 95.4191 56.3239 96.1413 56.3239 99.0299C56.3239 101.485 56.1313 102.592 55.6018 103.026C55.1204 103.459 54.8797 103.459 54.8797 103.074C54.8797 102.785 54.5908 102.544 54.2538 102.544C53.3873 102.544 50.0656 99.3187 50.0656 98.4521C50.0656 98.067 50.3545 97.73 50.7396 97.73C51.4617 97.73 52.4726 95.371 52.4726 93.5897C52.4726 91.9529 53.6762 92.1454 55.0722 94.023ZM46.6958 96.9597C46.6958 97.5856 49.4398 100.522 53.0022 103.748L55.1685 105.722L55.2648 116.361C55.3129 122.187 55.5536 127.579 55.8425 128.301C56.0832 128.975 56.3239 131.623 56.3239 134.126C56.3239 136.581 56.5164 139.566 56.8053 140.673C57.046 141.829 57.6718 144.573 58.2013 146.836C58.7309 149.098 59.5011 152.131 59.9344 153.576C61.3304 158.197 61.3786 158.871 60.3195 158.871C59.8381 158.871 58.6827 158.197 57.7681 157.379C56.2276 155.935 56.035 155.887 53.3392 156.175C50.5952 156.512 43.5667 155.79 41.6411 155.02C41.1116 154.779 39.4748 154.25 38.0306 153.816C32.5908 152.18 30.0875 150.495 31.7243 149.532C32.1094 149.291 35.6236 150.158 38.2713 151.12C39.7155 151.698 40.5821 151.265 39.7637 150.398C39.0416 149.724 37.9344 149.195 34.1794 147.799L32.0131 146.98L32.1576 143.899C32.2538 142.214 32.4945 140.577 32.7352 140.336C32.9278 140.048 33.2648 138.555 33.4573 136.966C33.6499 135.378 33.9387 133.837 34.1794 133.596C34.372 133.308 34.6608 132.585 34.8053 131.911C35.5755 128.445 36.1532 126.279 36.5383 125.412C37.3567 123.535 39.4267 116.265 39.7155 114.339C39.86 113.28 40.1488 111.306 40.2451 109.91C40.3895 108.514 40.8228 107.166 41.2079 106.829C41.593 106.54 41.8818 105.962 41.8818 105.625C41.8818 105.24 42.1225 104.951 42.3632 104.951C42.6521 104.951 42.8446 103.94 42.8446 102.737C42.8446 101.148 43.1816 100.137 44.0481 98.9817C44.7221 98.1151 45.2516 96.9116 45.2516 96.3339C45.2516 95.371 45.3479 95.3229 45.9737 95.9969C46.3589 96.382 46.6958 96.8153 46.6958 96.9597ZM174.46 96.0932C174.604 96.5264 174.748 97.3449 174.748 97.9707C174.748 98.5966 174.989 99.2706 175.23 99.415C175.519 99.5594 175.711 100.956 175.711 102.448C175.711 105.288 176.626 109.092 177.444 109.669C178.455 110.44 179.033 112.654 179.274 116.987C179.418 119.491 179.755 121.609 180.044 121.705C180.284 121.801 180.525 122.379 180.525 123.005C180.525 123.631 180.718 124.257 180.958 124.449C181.247 124.594 181.584 125.701 181.777 126.856C181.921 128.06 182.258 129.023 182.499 129.023C182.74 129.023 182.932 129.36 182.932 129.793C182.932 130.66 184.28 134.993 184.906 136.341C185.147 136.822 185.339 137.689 185.339 138.314C185.339 138.94 185.532 139.614 185.772 139.855C185.965 140.144 186.398 141.203 186.639 142.262C186.928 143.321 187.313 144.573 187.505 145.006C187.746 145.68 187.602 145.873 186.88 145.873C186.302 145.873 185.772 146.065 185.628 146.306C185.435 146.547 184.425 146.884 183.269 147.076C182.162 147.269 181.055 147.606 180.766 147.799C180.525 147.991 179.514 148.28 178.6 148.424C175.615 148.906 172.101 149.917 171.764 150.398C171.234 151.217 171.86 151.698 172.823 151.169C173.304 150.928 174.363 150.687 175.182 150.687C175.952 150.687 176.722 150.495 176.867 150.254C177.011 150.013 178.166 149.676 179.37 149.484C180.621 149.339 182.066 149.002 182.643 148.761C186.398 147.365 187.265 147.269 187.987 147.991C189.527 149.484 188.468 151.457 185.869 151.939C185.05 152.131 184.376 152.42 184.376 152.613C184.376 152.805 183.654 153.094 182.836 153.239C181.007 153.528 177.348 154.49 175.952 155.068C175.422 155.261 173.834 155.55 172.389 155.694L169.838 155.935L170.127 147.173C170.271 142.358 170.56 129.504 170.705 118.672C170.993 98.1633 170.993 98.3077 173.015 95.9487C173.737 95.1303 174.123 95.1784 174.46 96.0932ZM169.309 124.064C168.875 151.265 168.827 151.746 166.709 153.816C165.169 155.309 162.184 156.464 159.825 156.464C158.862 156.464 158.766 156.272 159.055 153.913C159.199 152.565 159.488 142.407 159.729 131.43C160.21 110.392 160.258 110.006 162.569 107.359C163.147 106.685 164.013 105.674 164.543 105.048C165.072 104.47 165.65 103.989 165.842 103.989C166.613 103.989 165.602 111.066 163.628 119.394C163.387 120.598 162.906 122.716 162.617 124.064C162.376 125.46 161.943 126.616 161.751 126.616C161.558 126.616 161.269 127.338 161.125 128.156C160.932 129.023 160.691 130.467 160.499 131.286C160.306 132.248 160.403 132.874 160.691 132.874C161.462 132.874 162.088 131.767 162.665 129.264C163.002 127.916 163.484 125.99 163.724 124.931C164.013 123.872 164.495 121.801 164.832 120.357C165.169 118.913 165.554 117.372 165.746 116.987C165.891 116.602 166.131 115.398 166.228 114.339C167.19 105.625 167.961 102.592 169.164 102.544C169.405 102.544 169.453 111.306 169.309 124.064ZM167.961 156.32C165.65 159.353 163.435 160.364 160.691 159.642C158.188 158.968 158.333 157.909 160.932 157.86C162.088 157.86 163.772 157.379 164.88 156.705C165.939 156.127 167.19 155.598 167.72 155.55C168.49 155.501 168.538 155.598 167.961 156.32ZM63.5449 164.889C63.5449 165.948 64.3151 168.163 65.5186 170.522C65.7593 171.003 65.9519 171.822 65.9519 172.303C65.9519 172.833 66.1926 173.411 66.4333 173.555C66.7221 173.699 66.9147 174.181 66.9147 174.614C66.9147 174.999 67.2516 176.058 67.6368 176.973C68.0219 177.888 68.6958 179.428 69.1291 180.391C69.5142 181.402 70.4289 183.28 71.1028 184.628C71.8249 185.928 72.9322 188.094 73.6061 189.442C74.2801 190.742 75.0022 191.897 75.2429 191.994C75.4355 192.09 75.5799 192.379 75.5799 192.62C75.5799 193.149 80.2976 200.708 81.1641 201.622C81.5492 201.959 81.8381 202.441 81.8381 202.633C81.8381 202.826 82.6083 203.789 83.523 204.752C84.4376 205.714 85.2079 206.629 85.2079 206.774C85.2079 206.966 84.4858 207.785 83.6193 208.603C82.0788 210.144 81.0678 212.117 79.8643 216.017C79.5755 217.172 79.1422 218.087 78.9978 218.087C78.3239 218.039 77.0241 216.739 77.0241 216.113C77.0241 215.006 75.4355 210.866 75.0022 210.866C74.8096 210.866 74.6171 210.577 74.6171 210.24C74.5689 208.218 69.2735 204.848 64.9891 204.174C63.256 203.885 61.7155 203.644 61.5711 203.644C61.3786 203.644 61.2823 202.296 61.3304 200.611C61.3304 198.541 61.0897 197.049 60.4639 195.701C59.2604 193.197 59.2604 187.42 60.4158 184.532C60.9934 183.039 61.1379 181.884 60.8972 180.439C60.3676 177.118 60.4639 170.859 61.0897 168.5C61.4267 167.296 61.8118 165.756 61.9562 164.986C62.2932 163.349 63.5449 163.252 63.5449 164.889ZM156.503 177.888C155.974 183.472 155.252 187.853 154.578 189.442C154.337 189.972 153.807 191.32 153.374 192.475C152.941 193.582 152.123 195.316 151.497 196.327C150.871 197.289 150.053 198.83 149.667 199.648C149.282 200.515 148.849 201.237 148.705 201.237C148.512 201.237 148.223 201.719 148.079 202.296C147.934 202.922 147.357 203.933 146.827 204.607C145.961 205.666 145.816 205.714 145.383 204.992C145.094 204.559 144.228 204.078 143.457 203.885C142.35 203.644 142.013 203.307 142.013 202.393C142.013 201.767 142.254 201.237 142.495 201.237C142.783 201.237 142.976 200.996 142.976 200.708C142.976 200.419 143.313 199.456 143.698 198.541C144.083 197.626 144.709 196.182 145.094 195.316C145.479 194.497 146.057 192.86 146.442 191.705C146.779 190.598 147.212 189.683 147.405 189.683C147.646 189.683 147.79 189.298 147.79 188.816C147.79 188.383 148.127 187.372 148.512 186.602C148.897 185.88 149.234 184.917 149.234 184.58C149.234 184.195 149.427 183.521 149.667 183.039C149.908 182.606 150.486 181.113 150.919 179.814C151.352 178.466 151.93 176.973 152.123 176.444C153.374 173.603 154.048 171.677 154.048 170.859C154.048 170.329 154.289 169.944 154.53 169.944C154.818 169.944 155.011 169.511 155.011 168.933C155.011 168.404 155.396 167.296 155.877 166.478L156.696 165.082L156.84 168.837C156.888 170.907 156.744 174.951 156.503 177.888ZM156.888 196.375C155.829 201.67 154.722 203.644 152.797 203.644C150.967 203.644 149.234 206.388 149.234 209.325C149.234 211.203 148.993 212.117 148.175 213.032C147.597 213.706 146.923 214.236 146.683 214.236C146.057 214.236 146.538 207.014 147.164 206.581C147.405 206.437 147.79 205.955 147.934 205.57C148.127 205.185 148.945 203.741 149.716 202.441C150.486 201.093 152.074 198.204 153.182 195.941C155.926 190.309 156.07 190.164 156.84 192.09C157.322 193.342 157.37 194.208 156.888 196.375ZM103.982 214.043C106.486 214.765 110.337 216.884 110.626 217.654C111.059 218.761 111.685 217.895 111.685 216.161C111.685 214.188 111.781 214.091 113.37 214.525C114.284 214.765 114.333 215.102 114.188 222.035C113.996 229.449 114.14 230.412 116.306 235.274C116.691 236.093 116.98 236.863 116.98 237.007C116.98 237.152 116.018 237.344 114.814 237.441L112.648 237.585V234.696C112.648 231.952 112.07 228.39 111.54 227.86C111.3 227.619 106.341 229.208 105.908 229.641C105.475 230.075 101.142 231.086 99.698 231.086C96.5689 231.086 93.825 229.401 92.8622 226.849C92.2845 225.405 92.2845 220.398 92.8622 218.954C93.5361 217.172 95.8468 214.958 97.965 214.091C100.42 213.128 100.853 213.128 103.982 214.043ZM139.269 214.332C140.521 214.813 141.098 216.161 140.088 216.161C139.847 216.161 139.606 216.595 139.606 217.124C139.606 218.424 139.895 218.328 141.243 216.787C142.206 215.68 142.495 215.584 143.168 216.113C143.746 216.595 143.794 216.98 143.409 217.702C142.687 219.05 143.12 219.82 144.035 218.857C144.468 218.424 144.95 218.087 145.142 218.087C145.576 218.087 146.827 216.787 146.827 216.306C146.827 216.113 147.405 215.536 148.031 215.054L149.234 214.188V220.398V226.608L147.212 227.186C144.565 228.005 141.098 229.112 139.847 229.593C135.803 231.182 133.926 231.423 131.374 230.508C129.063 229.738 127.667 227.908 127.042 224.923C125.405 217.028 131.856 211.395 139.269 214.332ZM58.442 216.45C58.5864 217.702 58.7309 221.12 58.7309 224.057C58.7309 227.716 58.9234 229.641 59.3567 230.075C59.8381 230.604 59.3085 230.652 56.5164 230.508C53.0022 230.315 52.5208 230.075 50.884 227.716C49.6805 226.031 49.7287 219.772 50.9322 217.943C52.7615 215.247 54.1576 214.332 56.6127 214.284C58.0569 214.236 58.1532 214.332 58.442 216.45ZM63.8337 218.328C64.8928 220.542 65.0853 221.457 64.8446 223.527C64.5558 226.368 63.7374 228.486 62.7746 228.871C62.2451 229.064 62.1007 228.438 62.0525 226.127C62.0525 224.49 61.86 221.457 61.7155 219.387C61.2823 214.813 61.9081 214.476 63.8337 218.328ZM79.4311 224.153C79.4311 226.657 79.6236 229.112 79.8643 229.545C80.0569 229.978 80.3939 231.086 80.5864 232L80.8753 233.637L78.8534 233.3C77.7462 233.108 76.7352 232.915 76.6871 232.819C76.5908 232.771 76.7834 231.615 77.0722 230.315C77.4092 229.016 77.7462 226.079 77.8425 223.72C77.9869 220.494 78.2276 219.531 78.7571 219.531C79.2867 219.531 79.4311 220.446 79.4311 224.153Z" fill="white"/>
<path d="M14.2013 203.404C7.75056 204.415 4.14006 206.003 2.64771 208.603C1.44421 210.673 1.39607 216.017 2.64771 217.895C4.76588 221.216 9.09848 224.201 14.6827 226.271C18.8228 227.812 19.256 228.149 18.3414 229.593C18.0044 230.123 17.0897 230.171 14.3939 229.978C8.66522 229.497 6.06566 229.112 5.00658 228.582C4.47704 228.342 3.36981 228.197 2.59957 228.293L1.20351 228.438L1.05909 234.793L0.914673 241.148L2.74399 241.629C3.75494 241.87 5.68054 242.399 6.98032 242.736C10.2538 243.603 25.7068 243.603 26.5733 242.736C26.8622 242.447 27.488 242.159 27.9212 242.159C30.0875 242.159 33.7943 239.318 35.1422 236.67C36.0569 234.889 36.1532 228.63 35.2385 228.293C34.9497 228.197 34.6608 227.908 34.6608 227.619C34.6608 226.416 30.3764 223.238 25.6587 220.928C20.4595 218.376 19.6893 217.654 20.7002 216.402C21.5668 215.391 30.9541 215.391 33.3611 216.402C34.3239 216.787 35.2385 217.124 35.3829 217.124C35.8643 217.124 35.6236 206.822 35.046 205.281C34.5164 203.837 34.2757 203.692 31.5317 203.211C27.6805 202.537 19.1116 202.633 14.2013 203.404Z" fill="white"/>
<path d="M182.932 203.355C182.018 203.692 181.055 204.415 180.766 204.992C180.525 205.57 180.14 206.051 179.948 206.051C179.274 206.051 179.514 210.866 180.236 212.214C180.621 212.936 181.344 213.947 181.921 214.428C182.884 215.295 182.932 215.824 182.98 226.223C183.028 232.578 183.269 238.115 183.606 239.511L184.136 241.918L188.468 242.062C193.86 242.255 196.171 241.629 196.604 239.944C196.797 239.27 196.797 236.815 196.604 234.408C196.267 230.364 196.315 230.123 197.23 230.123C198.433 230.123 200.214 232.145 202.236 235.707C204.403 239.655 205.173 240.859 206.039 241.533C207.532 242.784 215.523 242.014 218.315 240.377C219.134 239.896 219.182 239.655 218.7 238.837C218.363 238.259 218.074 237.537 218.074 237.2C218.074 236.189 214.56 231.423 211.864 228.775C209.554 226.512 208.832 225.309 209.794 225.309C210.468 225.309 215.667 220.302 215.667 219.628C215.667 219.339 215.86 219.05 216.101 219.05C216.823 219.05 217.4 214.573 216.967 212.021C215.86 205.233 209.217 202.633 192.801 202.73C187.602 202.73 183.991 202.97 182.932 203.355ZM201.707 214.091C203.295 215.15 203.632 215.68 203.632 217.221C203.632 219.965 197.182 222.227 194.967 220.254C193.764 219.194 193.667 216.161 194.775 214.476C195.449 213.465 195.93 213.273 198.048 213.273C199.589 213.273 200.985 213.562 201.707 214.091Z" fill="white"/>
<path d="M26.9584 249.139C18.2932 250.247 14.2495 252.22 12.372 256.264C11.3129 258.623 11.3129 262.908 12.372 265.171C13.2385 266.952 17.523 271.526 18.3895 271.526C18.6302 271.526 19.4486 271.911 20.1226 272.392C20.8447 272.874 23.5405 274.077 26.1401 275.088C30.9059 276.966 32.3501 278.169 31.0503 279.229C29.895 280.191 19.7374 279.325 14.0569 277.736C10.9278 276.87 10.639 277.592 10.5908 285.102C10.5908 288.424 10.7352 291.553 10.8797 291.986C11.3129 292.997 14.1532 294.153 16.3195 294.153C17.2823 294.153 18.3414 294.394 18.6783 294.731C19.4967 295.549 39.6674 295.597 40.4858 294.779C40.8228 294.442 41.593 294.153 42.1707 294.153C43.2779 294.153 46.3107 292.757 46.5996 292.083C46.6959 291.89 46.9847 291.746 47.2735 291.746C47.9475 291.746 49.9212 289.531 50.884 287.654C52.0394 285.487 51.9913 279.903 50.7878 278.025C49.488 276.051 45.6849 272.489 44.8184 272.489C44.5777 272.489 44.2889 272.344 44.1926 272.103C44 271.622 40.9672 270.081 40.1488 270.081C39.7637 270.081 39.4748 269.841 39.4748 269.6C39.4748 269.311 39.186 269.119 38.8972 269.119C37.8381 269.119 34.035 267 33.5055 266.134C32.5427 264.545 33.8425 264.064 40.0044 263.919C44.3851 263.775 46.407 263.919 48.1401 264.497C49.4398 264.93 50.7396 265.267 50.9803 265.267C51.7506 265.267 51.6543 255.013 50.884 252.028L50.2582 249.621L47.1291 249.091C43.0854 248.369 32.7352 248.369 26.9584 249.139Z" fill="white"/>
<path d="M56.1795 249.284C53.965 251.739 55.3611 276.196 58.2013 285.006C58.442 285.68 59.0197 287.461 59.5011 288.953C59.9825 290.494 60.5602 291.746 60.7528 291.746C60.9453 291.746 61.1379 292.035 61.1379 292.372C61.1379 292.757 61.5711 293.575 62.1488 294.201C63.0635 295.26 63.5449 295.356 68.2145 295.501C75.8206 295.79 76.1094 295.645 77.8906 292.083C78.7571 290.398 79.4311 288.809 79.4311 288.568C79.4311 288.279 79.9606 286.931 80.6346 285.583C81.7418 283.273 81.9825 283.08 83.4749 283.08C85.2079 283.08 86.6521 284.091 86.6521 285.295C86.6521 285.68 86.8447 285.969 87.0372 285.969C87.2779 285.969 87.8556 286.883 88.3851 287.991C88.8665 289.146 89.3961 290.157 89.5405 290.301C89.6849 290.446 90.1663 291.312 90.6477 292.275C91.7068 294.345 94.1619 295.356 97.0504 294.971C101.624 294.297 103.79 293.816 104.753 293.286C105.812 292.709 108.315 288.135 108.315 286.787C108.315 286.306 108.46 285.969 108.7 285.969C109.47 285.969 111.541 276.196 112.6 267.193C112.937 264.689 113.37 261.271 113.611 259.683C114.284 255.446 114.236 250.487 113.514 250.006C111.011 248.417 99.2648 247.743 97.9169 249.091C97.5318 249.476 97.2429 250.006 97.2429 250.295C97.2429 250.584 97.0504 250.824 96.8097 250.824C96.0876 250.824 95.3173 257.468 95.3173 264.256C95.3173 267.915 95.1729 271.285 95.0285 271.718C94.8841 272.152 94.2582 272.489 93.6324 272.489C92.7659 272.489 92.2845 271.911 91.2735 269.841C90.5996 268.348 90.0219 267 90.0219 266.76C90.0219 266.567 89.3961 265.075 88.6258 263.486C87.2779 260.79 87.0372 260.501 85.256 260.212C82.6565 259.779 81.6937 260.405 80.2013 263.678C79.4792 265.219 78.6127 267 78.3239 267.674C77.9869 268.348 77.4574 269.167 77.1685 269.504C76.8315 269.841 76.5427 270.37 76.5427 270.611C76.5427 270.852 76.0132 271.044 75.3873 271.044C73.9913 271.044 73.6543 270.178 73.1729 265.267C72.4027 258.142 71.6805 253.472 71.2473 253.039C70.9584 252.75 70.7659 252.172 70.7659 251.691C70.7659 251.209 70.5733 250.824 70.2845 250.824C70.0438 250.824 69.8031 250.584 69.8031 250.295C69.8031 248.899 68.07 248.465 62.5339 248.417C57.7681 248.417 56.8534 248.562 56.1795 249.284Z" fill="white"/>
<path d="M134.551 249.861C129.737 250.921 129.834 250.872 127.186 254.05C125.02 256.601 120.446 267.53 118.858 273.692C118.665 274.462 118.136 276.436 117.702 278.025C117.269 279.614 116.74 281.78 116.499 282.839C116.258 283.898 115.729 286.257 115.344 288.087C114.477 291.89 114.621 292.131 117.943 293.142C121.024 294.105 129.449 294.394 129.689 293.575C129.786 293.238 130.267 291.601 130.748 289.964C131.23 288.328 132.048 286.45 132.626 285.776C133.637 284.572 133.926 284.524 138.932 284.524C142.302 284.572 144.468 284.765 144.95 285.15C145.335 285.487 146.298 287.22 147.02 289.098C148.945 294.008 149.186 294.153 153.663 294.153C157.803 294.153 163.821 292.997 164.591 292.083C164.928 291.649 164.928 290.831 164.591 289.579C164.302 288.52 163.917 286.787 163.676 285.728C163.291 283.898 162.328 279.951 161.365 276.34C160.499 272.97 158.766 267.434 158.333 266.615C158.092 266.134 157.899 265.508 157.899 265.219C157.899 263.775 153.182 254.339 151.689 252.846C149.571 250.728 146.538 249.765 141.291 249.621C138.643 249.524 135.611 249.621 134.551 249.861ZM141.195 263.438C142.543 264.834 144.42 270.226 144.42 272.585C144.42 274.703 143.987 274.896 139.317 274.896H135.755V273.259C135.755 270.948 137.536 265.171 138.788 263.438C139.028 263.149 139.558 262.86 139.943 262.86C140.328 262.86 140.906 263.149 141.195 263.438Z" fill="white"/>
<path d="M185.58 249.717C182.836 250.006 179.322 251.161 176.433 252.654C174.556 253.617 169.453 258.768 169.453 259.731C169.453 260.116 169.26 260.453 168.972 260.453C168.731 260.453 168.49 260.838 168.49 261.319C168.49 261.801 168.298 262.379 168.105 262.619C166.95 263.919 166.035 269.6 166.228 273.981C166.42 278.988 167.383 284.524 168.057 284.524C168.298 284.524 168.49 284.861 168.49 285.246C168.49 286.739 172.197 291.746 173.304 291.746C173.593 291.746 173.786 291.89 173.786 292.083C173.786 292.66 176.626 294.153 177.637 294.153C178.118 294.153 178.6 294.442 178.696 294.731C178.888 295.212 181.007 295.356 187.313 295.356C195.786 295.356 197.856 295.068 201.707 293.238C203.681 292.323 207.772 288.279 208.254 286.787C208.446 286.209 208.832 285.583 209.12 285.391C209.457 285.198 209.65 282.647 209.65 278.41C209.65 272.874 209.505 271.478 208.735 269.841C207.484 267.289 206.954 266.808 204.499 266.278C200.118 265.219 194.053 265.845 189.335 267.722C187.265 268.541 186.735 269.022 186.302 270.37C185.676 272.2 186.398 276.773 187.361 277.351C188.035 277.784 190.683 277.351 191.357 276.773C192.079 276.099 194.823 276.292 195.112 277.014C196.074 279.421 192.945 281.154 187.554 281.154C183.028 281.154 182.162 280.48 181.392 276.388C180.573 272.007 181.44 267.048 183.269 265.46C185.772 263.293 188.709 262.667 194.678 263.101C204.547 263.775 204.162 263.823 204.884 261.897C205.654 259.779 205.702 255.109 205.028 252.75C204.403 250.68 204.114 250.584 197.615 249.861C193.764 249.476 188.276 249.38 185.58 249.717Z" fill="white"/>
</svg>
